<mxfile host="app.diagrams.net" agent="Mozilla/5.0 (X11; Linux x86_64) AppleWebKit/537.36 (KHTML, like Gecko) Chrome/129.0.0.0 Safari/537.36" version="24.7.17">
  <diagram name="Page-1" id="Jw0rTfr9wKQG1dk27obd">
    <mxGraphModel dx="1395" dy="633" grid="1" gridSize="10" guides="1" tooltips="1" connect="1" arrows="1" fold="1" page="1" pageScale="1" pageWidth="850" pageHeight="1100" math="0" shadow="0">
      <root>
        <mxCell id="0" />
        <mxCell id="1" parent="0" />
        <mxCell id="bHWTBNrj2pUqSJcVwbY0-1" value="" style="rounded=0;whiteSpace=wrap;html=1;fillColor=#FEE3FF;" vertex="1" parent="1">
          <mxGeometry x="80" y="350" width="220" height="260" as="geometry" />
        </mxCell>
        <mxCell id="bHWTBNrj2pUqSJcVwbY0-3" style="edgeStyle=orthogonalEdgeStyle;rounded=0;orthogonalLoop=1;jettySize=auto;html=1;entryX=0;entryY=0;entryDx=0;entryDy=0;" edge="1" parent="1" source="bHWTBNrj2pUqSJcVwbY0-2" target="bHWTBNrj2pUqSJcVwbY0-1">
          <mxGeometry relative="1" as="geometry" />
        </mxCell>
        <mxCell id="bHWTBNrj2pUqSJcVwbY0-2" value="WOToggleList" style="rounded=1;whiteSpace=wrap;html=1;" vertex="1" parent="1">
          <mxGeometry x="20" y="220" width="120" height="30" as="geometry" />
        </mxCell>
        <mxCell id="bHWTBNrj2pUqSJcVwbY0-10" style="edgeStyle=orthogonalEdgeStyle;rounded=0;orthogonalLoop=1;jettySize=auto;html=1;entryX=0;entryY=0.5;entryDx=0;entryDy=0;" edge="1" parent="1" source="bHWTBNrj2pUqSJcVwbY0-4" target="bHWTBNrj2pUqSJcVwbY0-9">
          <mxGeometry relative="1" as="geometry" />
        </mxCell>
        <mxCell id="bHWTBNrj2pUqSJcVwbY0-4" value="WOToggleUnit" style="rounded=0;whiteSpace=wrap;html=1;fillColor=#E8FFEB;" vertex="1" parent="1">
          <mxGeometry x="90" y="360" width="200" height="40" as="geometry" />
        </mxCell>
        <mxCell id="bHWTBNrj2pUqSJcVwbY0-12" style="edgeStyle=orthogonalEdgeStyle;rounded=0;orthogonalLoop=1;jettySize=auto;html=1;exitX=1;exitY=0.5;exitDx=0;exitDy=0;entryX=0;entryY=0.5;entryDx=0;entryDy=0;" edge="1" parent="1" source="bHWTBNrj2pUqSJcVwbY0-5" target="bHWTBNrj2pUqSJcVwbY0-9">
          <mxGeometry relative="1" as="geometry" />
        </mxCell>
        <mxCell id="bHWTBNrj2pUqSJcVwbY0-5" value="WOToggleUnit" style="rounded=0;whiteSpace=wrap;html=1;fillColor=#E8FFEB;" vertex="1" parent="1">
          <mxGeometry x="90" y="410" width="200" height="40" as="geometry" />
        </mxCell>
        <mxCell id="bHWTBNrj2pUqSJcVwbY0-16" style="edgeStyle=orthogonalEdgeStyle;rounded=0;orthogonalLoop=1;jettySize=auto;html=1;exitX=1;exitY=0.5;exitDx=0;exitDy=0;entryX=0;entryY=0.5;entryDx=0;entryDy=0;" edge="1" parent="1" source="bHWTBNrj2pUqSJcVwbY0-6" target="bHWTBNrj2pUqSJcVwbY0-9">
          <mxGeometry relative="1" as="geometry" />
        </mxCell>
        <mxCell id="bHWTBNrj2pUqSJcVwbY0-6" value="WOToggleUnit" style="rounded=0;whiteSpace=wrap;html=1;fillColor=#E8FFEB;" vertex="1" parent="1">
          <mxGeometry x="90" y="560" width="200" height="40" as="geometry" />
        </mxCell>
        <mxCell id="bHWTBNrj2pUqSJcVwbY0-14" style="edgeStyle=orthogonalEdgeStyle;rounded=0;orthogonalLoop=1;jettySize=auto;html=1;exitX=1;exitY=0.5;exitDx=0;exitDy=0;entryX=0;entryY=0.5;entryDx=0;entryDy=0;" edge="1" parent="1" source="bHWTBNrj2pUqSJcVwbY0-7" target="bHWTBNrj2pUqSJcVwbY0-9">
          <mxGeometry relative="1" as="geometry" />
        </mxCell>
        <mxCell id="bHWTBNrj2pUqSJcVwbY0-7" value="WOToggleUnit" style="rounded=0;whiteSpace=wrap;html=1;fillColor=#E8FFEB;" vertex="1" parent="1">
          <mxGeometry x="90" y="510" width="200" height="40" as="geometry" />
        </mxCell>
        <mxCell id="bHWTBNrj2pUqSJcVwbY0-13" style="edgeStyle=orthogonalEdgeStyle;rounded=0;orthogonalLoop=1;jettySize=auto;html=1;exitX=1;exitY=0.5;exitDx=0;exitDy=0;entryX=0;entryY=0.5;entryDx=0;entryDy=0;" edge="1" parent="1" source="bHWTBNrj2pUqSJcVwbY0-8" target="bHWTBNrj2pUqSJcVwbY0-9">
          <mxGeometry relative="1" as="geometry" />
        </mxCell>
        <mxCell id="bHWTBNrj2pUqSJcVwbY0-8" value="WOToggleUnit" style="rounded=0;whiteSpace=wrap;html=1;fillColor=#E8FFEB;" vertex="1" parent="1">
          <mxGeometry x="90" y="460" width="200" height="40" as="geometry" />
        </mxCell>
        <mxCell id="bHWTBNrj2pUqSJcVwbY0-9" value="" style="rounded=0;whiteSpace=wrap;html=1;fillColor=#E8FFEB;" vertex="1" parent="1">
          <mxGeometry x="410" y="500" width="410" height="50" as="geometry" />
        </mxCell>
        <mxCell id="bHWTBNrj2pUqSJcVwbY0-18" style="edgeStyle=orthogonalEdgeStyle;rounded=0;orthogonalLoop=1;jettySize=auto;html=1;entryX=0;entryY=0;entryDx=0;entryDy=0;" edge="1" parent="1" source="bHWTBNrj2pUqSJcVwbY0-17" target="bHWTBNrj2pUqSJcVwbY0-9">
          <mxGeometry relative="1" as="geometry" />
        </mxCell>
        <mxCell id="bHWTBNrj2pUqSJcVwbY0-17" value="WOListUnit" style="rounded=1;whiteSpace=wrap;html=1;" vertex="1" parent="1">
          <mxGeometry x="320" y="250" width="120" height="30" as="geometry" />
        </mxCell>
        <mxCell id="bHWTBNrj2pUqSJcVwbY0-20" value="" style="rounded=0;whiteSpace=wrap;html=1;" vertex="1" parent="1">
          <mxGeometry x="590" y="512.5" width="220" height="25" as="geometry" />
        </mxCell>
        <mxCell id="bHWTBNrj2pUqSJcVwbY0-22" style="edgeStyle=orthogonalEdgeStyle;rounded=0;orthogonalLoop=1;jettySize=auto;html=1;entryX=0;entryY=0;entryDx=0;entryDy=0;" edge="1" parent="1" source="bHWTBNrj2pUqSJcVwbY0-21" target="bHWTBNrj2pUqSJcVwbY0-20">
          <mxGeometry relative="1" as="geometry" />
        </mxCell>
        <mxCell id="bHWTBNrj2pUqSJcVwbY0-21" value="WOName" style="rounded=1;whiteSpace=wrap;html=1;" vertex="1" parent="1">
          <mxGeometry x="670" y="430" width="70" height="20" as="geometry" />
        </mxCell>
        <mxCell id="bHWTBNrj2pUqSJcVwbY0-23" value="" style="rounded=0;whiteSpace=wrap;html=1;" vertex="1" parent="1">
          <mxGeometry x="500" y="512.5" width="30" height="25" as="geometry" />
        </mxCell>
        <mxCell id="bHWTBNrj2pUqSJcVwbY0-24" style="edgeStyle=orthogonalEdgeStyle;rounded=0;orthogonalLoop=1;jettySize=auto;html=1;entryX=0;entryY=0;entryDx=0;entryDy=0;" edge="1" parent="1" source="bHWTBNrj2pUqSJcVwbY0-25" target="bHWTBNrj2pUqSJcVwbY0-23">
          <mxGeometry relative="1" as="geometry" />
        </mxCell>
        <mxCell id="bHWTBNrj2pUqSJcVwbY0-25" value="WORigidbody" style="rounded=1;whiteSpace=wrap;html=1;" vertex="1" parent="1">
          <mxGeometry x="470" y="420" width="90" height="20" as="geometry" />
        </mxCell>
        <mxCell id="bHWTBNrj2pUqSJcVwbY0-26" value="" style="rounded=0;whiteSpace=wrap;html=1;" vertex="1" parent="1">
          <mxGeometry x="420" y="512.5" width="30" height="25" as="geometry" />
        </mxCell>
        <mxCell id="bHWTBNrj2pUqSJcVwbY0-27" style="edgeStyle=orthogonalEdgeStyle;rounded=0;orthogonalLoop=1;jettySize=auto;html=1;entryX=0;entryY=0;entryDx=0;entryDy=0;" edge="1" parent="1" source="bHWTBNrj2pUqSJcVwbY0-28" target="bHWTBNrj2pUqSJcVwbY0-26">
          <mxGeometry relative="1" as="geometry" />
        </mxCell>
        <mxCell id="bHWTBNrj2pUqSJcVwbY0-28" value="WOActive" style="rounded=1;whiteSpace=wrap;html=1;" vertex="1" parent="1">
          <mxGeometry x="390" y="350" width="70" height="20" as="geometry" />
        </mxCell>
        <mxCell id="bHWTBNrj2pUqSJcVwbY0-29" value="" style="rounded=0;whiteSpace=wrap;html=1;" vertex="1" parent="1">
          <mxGeometry x="460" y="512.5" width="30" height="25" as="geometry" />
        </mxCell>
        <mxCell id="bHWTBNrj2pUqSJcVwbY0-30" style="edgeStyle=orthogonalEdgeStyle;rounded=0;orthogonalLoop=1;jettySize=auto;html=1;entryX=0;entryY=0;entryDx=0;entryDy=0;" edge="1" parent="1" source="bHWTBNrj2pUqSJcVwbY0-31" target="bHWTBNrj2pUqSJcVwbY0-29">
          <mxGeometry relative="1" as="geometry" />
        </mxCell>
        <mxCell id="bHWTBNrj2pUqSJcVwbY0-31" value="WOShader" style="rounded=1;whiteSpace=wrap;html=1;" vertex="1" parent="1">
          <mxGeometry x="430" y="390" width="70" height="20" as="geometry" />
        </mxCell>
        <mxCell id="bHWTBNrj2pUqSJcVwbY0-32" value="" style="rounded=0;whiteSpace=wrap;html=1;" vertex="1" parent="1">
          <mxGeometry x="540" y="512.5" width="30" height="25" as="geometry" />
        </mxCell>
        <mxCell id="bHWTBNrj2pUqSJcVwbY0-33" style="edgeStyle=orthogonalEdgeStyle;rounded=0;orthogonalLoop=1;jettySize=auto;html=1;entryX=0;entryY=0;entryDx=0;entryDy=0;" edge="1" parent="1" source="bHWTBNrj2pUqSJcVwbY0-34" target="bHWTBNrj2pUqSJcVwbY0-32">
          <mxGeometry relative="1" as="geometry" />
        </mxCell>
        <mxCell id="bHWTBNrj2pUqSJcVwbY0-34" value="WOParentTransform" style="rounded=1;whiteSpace=wrap;html=1;arcSize=33;" vertex="1" parent="1">
          <mxGeometry x="530" y="450" width="130" height="20" as="geometry" />
        </mxCell>
        <mxCell id="bHWTBNrj2pUqSJcVwbY0-36" style="edgeStyle=orthogonalEdgeStyle;rounded=0;orthogonalLoop=1;jettySize=auto;html=1;" edge="1" parent="1" source="bHWTBNrj2pUqSJcVwbY0-35" target="bHWTBNrj2pUqSJcVwbY0-26">
          <mxGeometry relative="1" as="geometry" />
        </mxCell>
        <mxCell id="bHWTBNrj2pUqSJcVwbY0-37" style="edgeStyle=orthogonalEdgeStyle;rounded=0;orthogonalLoop=1;jettySize=auto;html=1;entryX=0.5;entryY=1;entryDx=0;entryDy=0;" edge="1" parent="1" source="bHWTBNrj2pUqSJcVwbY0-35" target="bHWTBNrj2pUqSJcVwbY0-29">
          <mxGeometry relative="1" as="geometry" />
        </mxCell>
        <mxCell id="bHWTBNrj2pUqSJcVwbY0-38" style="edgeStyle=orthogonalEdgeStyle;rounded=0;orthogonalLoop=1;jettySize=auto;html=1;entryX=0.5;entryY=1;entryDx=0;entryDy=0;" edge="1" parent="1" source="bHWTBNrj2pUqSJcVwbY0-35" target="bHWTBNrj2pUqSJcVwbY0-23">
          <mxGeometry relative="1" as="geometry" />
        </mxCell>
        <mxCell id="bHWTBNrj2pUqSJcVwbY0-39" style="edgeStyle=orthogonalEdgeStyle;rounded=0;orthogonalLoop=1;jettySize=auto;html=1;entryX=0.5;entryY=1;entryDx=0;entryDy=0;" edge="1" parent="1" source="bHWTBNrj2pUqSJcVwbY0-35" target="bHWTBNrj2pUqSJcVwbY0-32">
          <mxGeometry relative="1" as="geometry" />
        </mxCell>
        <mxCell id="bHWTBNrj2pUqSJcVwbY0-35" value="Toggles" style="shape=hexagon;perimeter=hexagonPerimeter2;whiteSpace=wrap;html=1;fixedSize=1;" vertex="1" parent="1">
          <mxGeometry x="430" y="610" width="120" height="20" as="geometry" />
        </mxCell>
        <mxCell id="bHWTBNrj2pUqSJcVwbY0-41" style="edgeStyle=orthogonalEdgeStyle;rounded=0;orthogonalLoop=1;jettySize=auto;html=1;entryX=0.5;entryY=1;entryDx=0;entryDy=0;" edge="1" parent="1" source="bHWTBNrj2pUqSJcVwbY0-40" target="bHWTBNrj2pUqSJcVwbY0-20">
          <mxGeometry relative="1" as="geometry" />
        </mxCell>
        <mxCell id="bHWTBNrj2pUqSJcVwbY0-40" value="String/Input" style="shape=hexagon;perimeter=hexagonPerimeter2;whiteSpace=wrap;html=1;fixedSize=1;" vertex="1" parent="1">
          <mxGeometry x="640" y="610" width="120" height="20" as="geometry" />
        </mxCell>
        <mxCell id="bHWTBNrj2pUqSJcVwbY0-43" style="edgeStyle=orthogonalEdgeStyle;rounded=0;orthogonalLoop=1;jettySize=auto;html=1;entryX=0.5;entryY=1;entryDx=0;entryDy=0;" edge="1" parent="1" source="bHWTBNrj2pUqSJcVwbY0-42" target="bHWTBNrj2pUqSJcVwbY0-35">
          <mxGeometry relative="1" as="geometry" />
        </mxCell>
        <mxCell id="bHWTBNrj2pUqSJcVwbY0-42" value="UIElement" style="shape=hexagon;perimeter=hexagonPerimeter2;whiteSpace=wrap;html=1;fixedSize=1;" vertex="1" parent="1">
          <mxGeometry x="430" y="670" width="120" height="20" as="geometry" />
        </mxCell>
        <mxCell id="bHWTBNrj2pUqSJcVwbY0-45" style="edgeStyle=orthogonalEdgeStyle;rounded=0;orthogonalLoop=1;jettySize=auto;html=1;entryX=0.5;entryY=1;entryDx=0;entryDy=0;" edge="1" parent="1" source="bHWTBNrj2pUqSJcVwbY0-44" target="bHWTBNrj2pUqSJcVwbY0-40">
          <mxGeometry relative="1" as="geometry" />
        </mxCell>
        <mxCell id="bHWTBNrj2pUqSJcVwbY0-44" value="UIElement" style="shape=hexagon;perimeter=hexagonPerimeter2;whiteSpace=wrap;html=1;fixedSize=1;" vertex="1" parent="1">
          <mxGeometry x="640" y="670" width="120" height="20" as="geometry" />
        </mxCell>
        <mxCell id="bHWTBNrj2pUqSJcVwbY0-51" style="edgeStyle=orthogonalEdgeStyle;rounded=0;orthogonalLoop=1;jettySize=auto;html=1;entryX=0.75;entryY=1;entryDx=0;entryDy=0;" edge="1" parent="1" source="bHWTBNrj2pUqSJcVwbY0-46" target="bHWTBNrj2pUqSJcVwbY0-1">
          <mxGeometry relative="1" as="geometry" />
        </mxCell>
        <mxCell id="bHWTBNrj2pUqSJcVwbY0-46" value="UIModule + UIPrimitive" style="shape=hexagon;perimeter=hexagonPerimeter2;whiteSpace=wrap;html=1;fixedSize=1;" vertex="1" parent="1">
          <mxGeometry x="170" y="670" width="160" height="40" as="geometry" />
        </mxCell>
        <mxCell id="bHWTBNrj2pUqSJcVwbY0-49" style="edgeStyle=orthogonalEdgeStyle;rounded=0;orthogonalLoop=1;jettySize=auto;html=1;entryX=1;entryY=1;entryDx=0;entryDy=0;" edge="1" parent="1" source="bHWTBNrj2pUqSJcVwbY0-48" target="bHWTBNrj2pUqSJcVwbY0-9">
          <mxGeometry relative="1" as="geometry" />
        </mxCell>
        <mxCell id="bHWTBNrj2pUqSJcVwbY0-48" value="UIUnit + UIPrimitive" style="shape=hexagon;perimeter=hexagonPerimeter2;whiteSpace=wrap;html=1;fixedSize=1;" vertex="1" parent="1">
          <mxGeometry x="690" y="730" width="150" height="30" as="geometry" />
        </mxCell>
        <mxCell id="bHWTBNrj2pUqSJcVwbY0-52" style="edgeStyle=orthogonalEdgeStyle;rounded=0;orthogonalLoop=1;jettySize=auto;html=1;entryX=0;entryY=0.5;entryDx=0;entryDy=0;" edge="1" parent="1" source="bHWTBNrj2pUqSJcVwbY0-50" target="bHWTBNrj2pUqSJcVwbY0-6">
          <mxGeometry relative="1" as="geometry" />
        </mxCell>
        <mxCell id="bHWTBNrj2pUqSJcVwbY0-53" style="edgeStyle=orthogonalEdgeStyle;rounded=0;orthogonalLoop=1;jettySize=auto;html=1;entryX=0;entryY=0.5;entryDx=0;entryDy=0;" edge="1" parent="1" source="bHWTBNrj2pUqSJcVwbY0-50" target="bHWTBNrj2pUqSJcVwbY0-7">
          <mxGeometry relative="1" as="geometry" />
        </mxCell>
        <mxCell id="bHWTBNrj2pUqSJcVwbY0-54" style="edgeStyle=orthogonalEdgeStyle;rounded=0;orthogonalLoop=1;jettySize=auto;html=1;entryX=0;entryY=0.5;entryDx=0;entryDy=0;" edge="1" parent="1" source="bHWTBNrj2pUqSJcVwbY0-50" target="bHWTBNrj2pUqSJcVwbY0-8">
          <mxGeometry relative="1" as="geometry" />
        </mxCell>
        <mxCell id="bHWTBNrj2pUqSJcVwbY0-55" style="edgeStyle=orthogonalEdgeStyle;rounded=0;orthogonalLoop=1;jettySize=auto;html=1;entryX=0;entryY=0.5;entryDx=0;entryDy=0;" edge="1" parent="1" source="bHWTBNrj2pUqSJcVwbY0-50" target="bHWTBNrj2pUqSJcVwbY0-5">
          <mxGeometry relative="1" as="geometry" />
        </mxCell>
        <mxCell id="bHWTBNrj2pUqSJcVwbY0-56" style="edgeStyle=orthogonalEdgeStyle;rounded=0;orthogonalLoop=1;jettySize=auto;html=1;entryX=0;entryY=0.5;entryDx=0;entryDy=0;" edge="1" parent="1" source="bHWTBNrj2pUqSJcVwbY0-50" target="bHWTBNrj2pUqSJcVwbY0-4">
          <mxGeometry relative="1" as="geometry" />
        </mxCell>
        <mxCell id="bHWTBNrj2pUqSJcVwbY0-50" value="UIUnit" style="shape=hexagon;perimeter=hexagonPerimeter2;whiteSpace=wrap;html=1;fixedSize=1;" vertex="1" parent="1">
          <mxGeometry x="10" y="650" width="90" height="20" as="geometry" />
        </mxCell>
      </root>
    </mxGraphModel>
  </diagram>
</mxfile>
